<?xml version="1.0" encoding="UTF-8" standalone="no"?>
<svg
   xmlns:dc="http://purl.org/dc/elements/1.1/"
   xmlns:cc="http://creativecommons.org/ns#"
   xmlns:rdf="http://www.w3.org/1999/02/22-rdf-syntax-ns#"
   xmlns:svg="http://www.w3.org/2000/svg"
   xmlns="http://www.w3.org/2000/svg"
   xmlns:xlink="http://www.w3.org/1999/xlink"
   xmlns:sodipodi="http://sodipodi.sourceforge.net/DTD/sodipodi-0.dtd"
   xmlns:inkscape="http://www.inkscape.org/namespaces/inkscape"
   width="1046.0775"
   height="727.0293"
   version="1.1"
   id="svg28"
   sodipodi:docname="instagram-logo.svg"
   inkscape:version="0.92.2 (5c3e80d, 2017-08-06)">
  <metadata
     id="metadata32">
    <rdf:RDF>
      <cc:Work
         rdf:about="">
        <dc:format>image/svg+xml</dc:format>
        <dc:type
           rdf:resource="http://purl.org/dc/dcmitype/StillImage" />
        <dc:title></dc:title>
      </cc:Work>
    </rdf:RDF>
  </metadata>
  <sodipodi:namedview
     pagecolor="#ffffff"
     bordercolor="#666666"
     borderopacity="1"
     objecttolerance="10"
     gridtolerance="10"
     guidetolerance="10"
     inkscape:pageopacity="0"
     inkscape:pageshadow="2"
     inkscape:window-width="1600"
     inkscape:window-height="837"
     id="namedview30"
     showgrid="false"
     inkscape:zoom="0.31605531"
     inkscape:cx="2.3624038"
     inkscape:cy="246.72141"
     inkscape:window-x="-8"
     inkscape:window-y="-8"
     inkscape:window-maximized="1"
     inkscape:current-layer="svg28"
     fit-margin-top="0"
     fit-margin-left="0"
     fit-margin-right="0"
     fit-margin-bottom="0" />
  <defs
     id="defs20">
    <linearGradient
       id="b">
      <stop
         offset="0"
         stop-color="#3771c8"
         id="stop2" />
      <stop
         stop-color="#3771c8"
         offset=".128"
         id="stop4" />
      <stop
         offset="1"
         stop-color="#60f"
         stop-opacity="0"
         id="stop6" />
    </linearGradient>
    <linearGradient
       id="a">
      <stop
         offset="0"
         stop-color="#fd5"
         id="stop9" />
      <stop
         offset=".1"
         stop-color="#fd5"
         id="stop11" />
      <stop
         offset=".5"
         stop-color="#ff543e"
         id="stop13" />
      <stop
         offset="1"
         stop-color="#c837ab"
         id="stop15" />
    </linearGradient>
    <radialGradient
       id="c"
       cx="158.429"
       cy="578.08801"
       r="65"
       xlink:href="#a"
       gradientUnits="userSpaceOnUse"
       gradientTransform="matrix(0,-1.98198,1.8439,0,-115.34546,986.91715)"
       fx="158.429"
       fy="578.08801" />
    <radialGradient
       id="d"
       cx="147.694"
       cy="473.45499"
       r="65"
       xlink:href="#b"
       gradientUnits="userSpaceOnUse"
       gradientTransform="matrix(0.17394,0.86872,-3.5818,0.71718,2564.4045,74.42015)"
       fx="147.694"
       fy="473.45499" />
    <radialGradient
       id="d-1"
       cx="147.694"
       cy="473.45499"
       r="65"
       xlink:href="#b"
       gradientUnits="userSpaceOnUse"
       gradientTransform="matrix(0.17394,0.86872,-3.5818,0.71718,2447.5587,-458.493)"
       fx="147.694"
       fy="473.45499" />
    <radialGradient
       id="c-8"
       cx="158.429"
       cy="578.08801"
       r="65"
       xlink:href="#a"
       gradientUnits="userSpaceOnUse"
       gradientTransform="matrix(0,-1.98198,1.8439,0,-232.19116,454.004)"
       fx="158.429"
       fy="578.08801" />
  </defs>
  <path
     d="m 981.08654,532.91315 c -27.142,0 -35.08,0.028 -36.623,0.156 -5.57,0.463 -9.036,1.34 -12.812,3.22 -2.91,1.445 -5.205,3.12 -7.47,5.468 -4.125,4.282 -6.625,9.55 -7.53,15.812 -0.44,3.04 -0.568,3.66 -0.594,19.188 -0.01,5.176 0,11.988 0,21.125 0,27.12 0.03,35.05 0.16,36.59 0.45,5.42 1.3,8.83 3.1,12.56 3.44,7.14 10.01,12.5 17.75,14.5 2.68,0.69 5.64,1.07 9.44,1.25 1.61,0.07 18.02,0.12 34.44,0.12 16.42,0 32.83996,-0.02 34.40996,-0.1 4.4,-0.207 6.955,-0.55 9.78,-1.28 7.79,-2.01 14.24,-7.29 17.75,-14.53 1.765,-3.64 2.66,-7.18 3.065,-12.317 0.088,-1.12 0.125,-18.977 0.125,-36.81 0,-17.836 -0.04,-35.66 -0.128,-36.78 -0.41,-5.22 -1.305,-8.73 -3.127,-12.44 -1.495,-3.037 -3.155,-5.305 -5.565,-7.624 -4.301,-4.108 -9.561,-6.608 -15.829,-7.512 -3.037,-0.439 -3.642,-0.569 -19.182,-0.596 z"
     id="path22"
     inkscape:connector-curvature="0"
     style="fill:url(#c)" />
  <path
     d="m 981.08654,532.91315 c -27.142,0 -35.08,0.028 -36.623,0.156 -5.57,0.463 -9.036,1.34 -12.812,3.22 -2.91,1.445 -5.205,3.12 -7.47,5.468 -4.125,4.282 -6.625,9.55 -7.53,15.812 -0.44,3.04 -0.568,3.66 -0.594,19.188 -0.01,5.176 0,11.988 0,21.125 0,27.12 0.03,35.05 0.16,36.59 0.45,5.42 1.3,8.83 3.1,12.56 3.44,7.14 10.01,12.5 17.75,14.5 2.68,0.69 5.64,1.07 9.44,1.25 1.61,0.07 18.02,0.12 34.44,0.12 16.42,0 32.83996,-0.02 34.40996,-0.1 4.4,-0.207 6.955,-0.55 9.78,-1.28 7.79,-2.01 14.24,-7.29 17.75,-14.53 1.765,-3.64 2.66,-7.18 3.065,-12.317 0.088,-1.12 0.125,-18.977 0.125,-36.81 0,-17.836 -0.04,-35.66 -0.128,-36.78 -0.41,-5.22 -1.305,-8.73 -3.127,-12.44 -1.495,-3.037 -3.155,-5.305 -5.565,-7.624 -4.301,-4.108 -9.561,-6.608 -15.829,-7.512 -3.037,-0.439 -3.642,-0.569 -19.182,-0.596 z"
     id="path24"
     inkscape:connector-curvature="0"
     style="fill:url(#d)" />
  <path
     d="m 981.05654,549.91315 c -13.036,0 -14.672,0.057 -19.792,0.29 -5.11,0.234 -8.598,1.043 -11.65,2.23 -3.157,1.226 -5.835,2.866 -8.503,5.535 -2.67,2.668 -4.31,5.346 -5.54,8.502 -1.19,3.053 -2,6.542 -2.23,11.65 -0.229,5.12 -0.289,6.757 -0.289,19.793 0,13.036 0.058,14.667 0.29,19.787 0.235,5.11 1.044,8.598 2.23,11.65 1.227,3.157 2.867,5.835 5.536,8.503 2.667,2.67 5.345,4.314 8.5,5.54 3.054,1.187 6.543,1.996 11.652,2.23 5.12,0.233 6.755,0.29 19.79,0.29 13.037,0 14.668,-0.057 19.78796,-0.29 5.11,-0.234 8.602,-1.043 11.656,-2.23 3.156,-1.226 5.83,-2.87 8.497,-5.54 2.67,-2.668 4.31,-5.346 5.54,-8.502 1.18,-3.053 1.99,-6.542 2.23,-11.65 0.23,-5.12 0.29,-6.752 0.29,-19.788 0,-13.036 -0.06,-14.672 -0.29,-19.792 -0.24,-5.11 -1.05,-8.598 -2.23,-11.65 -1.23,-3.157 -2.87,-5.835 -5.54,-8.503 -2.67,-2.67 -5.34,-4.31 -8.5,-5.535 -3.06,-1.187 -6.55,-1.996 -11.66,-2.23 -5.11996,-0.233 -6.74996,-0.29 -19.78996,-0.29 z m -4.306,8.65 c 1.278,-0.002 2.704,0 4.306,0 12.816,0 14.335,0.046 19.39596,0.276 4.68,0.214 7.22,0.996 8.912,1.653 2.24,0.87 3.837,1.91 5.516,3.59 1.68,1.68 2.72,3.28 3.592,5.52 0.657,1.69 1.44,4.23 1.653,8.91 0.23,5.06 0.28,6.58 0.28,19.39 0,12.81 -0.05,14.33 -0.28,19.39 -0.214,4.68 -0.996,7.22 -1.653,8.91 -0.87,2.24 -1.912,3.835 -3.592,5.514 -1.68,1.68 -3.275,2.72 -5.516,3.59 -1.69,0.66 -4.232,1.44 -8.912,1.654 -5.05996,0.23 -6.57996,0.28 -19.39596,0.28 -12.817,0 -14.336,-0.05 -19.396,-0.28 -4.68,-0.216 -7.22,-0.998 -8.913,-1.655 -2.24,-0.87 -3.84,-1.91 -5.52,-3.59 -1.68,-1.68 -2.72,-3.276 -3.592,-5.517 -0.657,-1.69 -1.44,-4.23 -1.653,-8.91 -0.23,-5.06 -0.276,-6.58 -0.276,-19.398 0,-12.818 0.046,-14.33 0.276,-19.39 0.214,-4.68 0.996,-7.22 1.653,-8.912 0.87,-2.24 1.912,-3.84 3.592,-5.52 1.68,-1.68 3.28,-2.72 5.52,-3.592 1.692,-0.66 4.233,-1.44 8.913,-1.655 4.428,-0.2 6.144,-0.26 15.09,-0.27 z m 29.92796,7.97 c -3.18,0 -5.76,2.577 -5.76,5.758 0,3.18 2.58,5.76 5.76,5.76 3.18,0 5.76,-2.58 5.76,-5.76 0,-3.18 -2.58,-5.76 -5.76,-5.76 z m -25.62196,6.73 c -13.613,0 -24.65,11.037 -24.65,24.65 0,13.613 11.037,24.645 24.65,24.645 13.613,0 24.64596,-11.032 24.64596,-24.645 0,-13.613 -11.03396,-24.65 -24.64696,-24.65 z m 0,8.65 c 8.836,0 16,7.163 16,16 0,8.836 -7.164,16 -16,16 -8.837,0 -16,-7.164 -16,-16 0,-8.837 7.163,-16 16,-16 z"
     id="path26"
     inkscape:connector-curvature="0"
     style="fill:#ffffff" />
  <path
     inkscape:connector-curvature="0"
     style="fill:url(#c-8)"
     d="m 864.24084,0 c -27.142,0 -35.08,0.028 -36.623,0.156 -5.57,0.463 -9.036,1.34 -12.812,3.22 -2.91,1.445 -5.205,3.12 -7.47,5.468 -4.125,4.282 -6.625,9.55 -7.53,15.812 -0.44,3.04 -0.568,3.66 -0.594,19.188 -0.01,5.176 0,11.988 0,21.125 0,27.12 0.03,35.05 0.16,36.59 0.45,5.42 1.3,8.83 3.1,12.56 3.44,7.14 10.01,12.5 17.75,14.5 2.68,0.69 5.64,1.07 9.44,1.25 1.61,0.07 18.02,0.12 34.44,0.12 16.42,0 32.84,-0.02 34.41,-0.1 4.39999,-0.207 6.95499,-0.55 9.77999,-1.28 7.79,-2.01 14.24,-7.29 17.75,-14.53 1.765,-3.64 2.66,-7.18 3.065,-12.317 0.088,-1.12 0.125,-18.977 0.125,-36.81 0,-17.836 -0.04,-35.66 -0.128,-36.78 -0.41,-5.22 -1.305,-8.73 -3.127,-12.44 -1.495,-3.037 -3.155,-5.305 -5.565,-7.624 -4.301,-4.108 -9.561,-6.608 -15.829,-7.512 -3.037,-0.439 -3.642,-0.569 -19.18199,-0.596 z"
     id="path22-7" />
  <path
     inkscape:connector-curvature="0"
     style="fill:url(#d-1)"
     d="m 864.24084,0 c -27.142,0 -35.08,0.028 -36.623,0.156 -5.57,0.463 -9.036,1.34 -12.812,3.22 -2.91,1.445 -5.205,3.12 -7.47,5.468 -4.125,4.282 -6.625,9.55 -7.53,15.812 -0.44,3.04 -0.568,3.66 -0.594,19.188 -0.01,5.176 0,11.988 0,21.125 0,27.12 0.03,35.05 0.16,36.59 0.45,5.42 1.3,8.83 3.1,12.56 3.44,7.14 10.01,12.5 17.75,14.5 2.68,0.69 5.64,1.07 9.44,1.25 1.61,0.07 18.02,0.12 34.44,0.12 16.42,0 32.84,-0.02 34.41,-0.1 4.39999,-0.207 6.95499,-0.55 9.77999,-1.28 7.79,-2.01 14.24,-7.29 17.75,-14.53 1.765,-3.64 2.66,-7.18 3.065,-12.317 0.088,-1.12 0.125,-18.977 0.125,-36.81 0,-17.836 -0.04,-35.66 -0.128,-36.78 -0.41,-5.22 -1.305,-8.73 -3.127,-12.44 -1.495,-3.037 -3.155,-5.305 -5.565,-7.624 -4.301,-4.108 -9.561,-6.608 -15.829,-7.512 -3.037,-0.439 -3.642,-0.569 -19.18199,-0.596 z"
     id="path24-9" />
  <path
     inkscape:connector-curvature="0"
     style="fill:#ffffff"
     d="m 864.21084,17 c -13.036,0 -14.672,0.057 -19.792,0.29 -5.11,0.234 -8.598,1.043 -11.65,2.23 -3.157,1.226 -5.835,2.866 -8.503,5.535 -2.67,2.668 -4.31,5.346 -5.54,8.502 -1.19,3.053 -2,6.542 -2.23,11.65 -0.229,5.12 -0.289,6.757 -0.289,19.793 0,13.036 0.058,14.667 0.29,19.787 0.235,5.11 1.044,8.598 2.23,11.65 1.227,3.157 2.867,5.835 5.536,8.503 2.667,2.67 5.345,4.314 8.5,5.54 3.054,1.187 6.543,1.996 11.652,2.23 5.12,0.233 6.755,0.29 19.79,0.29 13.037,0 14.668,-0.057 19.788,-0.29 5.11,-0.234 8.602,-1.043 11.656,-2.23 3.156,-1.226 5.82999,-2.87 8.49699,-5.54 2.67,-2.668 4.31,-5.346 5.54,-8.502 1.18,-3.053 1.99,-6.542 2.23,-11.65 0.23,-5.12 0.29,-6.752 0.29,-19.788 0,-13.036 -0.06,-14.672 -0.29,-19.792 -0.24,-5.11 -1.05,-8.598 -2.23,-11.65 -1.23,-3.157 -2.87,-5.835 -5.54,-8.503 -2.67,-2.67 -5.33999,-4.31 -8.49999,-5.535 -3.06,-1.187 -6.55,-1.996 -11.66,-2.23 -5.12,-0.233 -6.75,-0.29 -19.79,-0.29 z m -4.306,8.65 c 1.278,-0.002 2.704,0 4.306,0 12.816,0 14.335,0.046 19.396,0.276 4.68,0.214 7.22,0.996 8.912,1.653 2.24,0.87 3.837,1.91 5.516,3.59 1.67999,1.68 2.71999,3.28 3.59199,5.52 0.657,1.69 1.44,4.23 1.653,8.91 0.23,5.06 0.28,6.58 0.28,19.39 0,12.81 -0.05,14.33 -0.28,19.39 -0.214,4.68 -0.996,7.22 -1.653,8.91 -0.87,2.24 -1.912,3.835 -3.59199,5.514 -1.68,1.68 -3.275,2.72 -5.516,3.59 -1.69,0.66 -4.232,1.44 -8.912,1.654 -5.06,0.23 -6.58,0.28 -19.396,0.28 -12.817,0 -14.336,-0.05 -19.396,-0.28 -4.68,-0.216 -7.22,-0.998 -8.913,-1.655 -2.24,-0.87 -3.84,-1.91 -5.52,-3.59 -1.68,-1.68 -2.72,-3.276 -3.592,-5.517 -0.657,-1.69 -1.44,-4.23 -1.653,-8.91 -0.23,-5.06 -0.276,-6.58 -0.276,-19.398 0,-12.818 0.046,-14.33 0.276,-19.39 0.214,-4.68 0.996,-7.22 1.653,-8.912 0.87,-2.24 1.912,-3.84 3.592,-5.52 1.68,-1.68 3.28,-2.72 5.52,-3.592 1.692,-0.66 4.233,-1.44 8.913,-1.655 4.428,-0.2 6.144,-0.26 15.09,-0.27 z m 29.928,7.97 c -3.18,0 -5.76,2.577 -5.76,5.758 0,3.18 2.58,5.76 5.76,5.76 3.18,0 5.76,-2.58 5.76,-5.76 0,-3.18 -2.58,-5.76 -5.76,-5.76 z m -25.622,6.73 c -13.613,0 -24.65,11.037 -24.65,24.65 0,13.613 11.037,24.645 24.65,24.645 13.613,0 24.646,-11.032 24.646,-24.645 0,-13.613 -11.034,-24.65 -24.647,-24.65 z m 0,8.65 c 8.836,0 16,7.163 16,16 0,8.836 -7.164,16 -16,16 -8.837,0 -16,-7.164 -16,-16 0,-8.837 7.163,-16 16,-16 z"
     id="path26-2" />
  <path
     inkscape:connector-curvature="0"
     style="fill:#262626;stroke-width:0.16284896"
     d="m 805.95747,139.34994 c -2.63982,1.105 -5.54187,4.22675 -6.45843,8.14522 -1.16076,4.96485 3.66969,7.06434 4.06588,6.37595 0.46631,-0.80888 -0.86556,-1.08242 -1.13972,-3.65841 -0.35432,-3.32712 1.19245,-7.0448 3.1391,-8.67601 0.36186,-0.30306 0.34465,0.11875 0.34465,0.89898 0,1.39522 -0.077,13.92024 -0.077,16.53423 0,3.53705 -0.1461,4.65398 -0.40848,5.75766 -0.26586,1.11846 -0.69324,1.87419 -0.36939,2.16531 0.36184,0.32563 1.90673,-0.44893 2.8011,-1.69718 1.07246,-1.49709 1.44789,-3.295 1.51529,-5.24753 0.0814,-2.35368 0.078,-6.08849 0.0814,-8.2188 0.003,-1.95381 0.0328,-7.67501 -0.0343,-11.11438 -0.0165,-0.84359 -2.35609,-1.72866 -3.4602,-1.26605 m 93.7403,16.55414 c -0.0851,1.83883 -0.49215,3.27612 -0.99732,4.28991 -0.97799,1.96266 -3.00735,2.57208 -3.86898,-0.24931 -0.46956,-1.53795 -0.49149,-4.10645 -0.15391,-6.25262 0.34364,-2.18631 1.30318,-3.8375 2.89207,-3.68858 1.56717,0.14719 2.30073,2.16656 2.12814,5.90052 z m -26.41988,11.40853 c -0.0213,3.05532 -0.50213,5.7342 -1.5333,6.51227 -1.46253,1.10324 -3.42828,0.27568 -3.02124,-1.95382 0.36016,-1.9729 2.06344,-3.98774 4.55868,-6.44953 0,0 0.005,0.5614 -0.004,1.89108 z m -0.39944,-11.42633 c -0.0894,1.6748 -0.52362,3.35729 -0.99731,4.30794 -0.97778,1.96264 -3.02189,2.5762 -3.86898,-0.2493 -0.57919,-1.93051 -0.44048,-4.42909 -0.15391,-6.00341 0.37186,-2.04261 1.27323,-3.9376 2.89207,-3.9376 1.5739,0 2.35001,1.72674 2.12813,5.8825 z m -15.30507,-0.0256 c -0.096,1.77379 -0.44199,3.25658 -0.99731,4.33356 -1.0047,1.94915 -2.99237,2.5673 -3.86899,-0.24929 -0.63195,-2.031 -0.4168,-4.80031 -0.15392,-6.2963 0.39012,-2.21996 1.36702,-3.79385 2.89209,-3.64471 1.56652,0.15303 2.32807,2.16634 2.12813,5.85688 z m 70.13966,2.07187 c -0.38296,0 -0.55772,0.39473 -0.70229,1.05917 -0.50147,2.31028 -1.02858,2.83193 -1.70829,2.83193 -0.75938,0 -1.4417,-1.14396 -1.61711,-3.43394 -0.13785,-1.80065 -0.11569,-5.11571 0.0606,-8.41333 0.036,-0.67753 -0.15088,-1.3479 -1.96814,-2.00807 -0.78197,-0.28396 -1.91866,-0.70208 -2.48461,0.66408 -1.59908,3.85964 -2.22475,6.92387 -2.37193,8.16866 -0.007,0.0644 -0.0867,0.0777 -0.10052,-0.0729 -0.0938,-0.997 -0.30348,-2.80872 -0.32953,-6.61517 -0.005,-0.74267 -0.16238,-1.37483 -0.98212,-1.89239 -0.53188,-0.33582 -2.14702,-0.92978 -2.72861,-0.22317 -0.50388,0.57791 -1.08741,2.13313 -1.69375,3.97667 -0.49278,1.49834 -0.836,2.51196 -0.836,2.51196 0,0 0.006,-4.04287 0.0124,-5.57641 0.003,-0.57854 -0.39424,-0.77132 -0.51385,-0.80626 -0.53861,-0.15632 -1.59975,-0.41746 -2.0502,-0.41746 -0.55576,0 -0.69187,0.31065 -0.69187,0.76329 0,0.0593 -0.0877,5.32283 -0.0877,9.00335 0,0.15988 0,0.3343 0.002,0.51959 -0.30739,1.69161 -1.30428,3.98795 -2.38843,3.98795 -1.08545,0 -1.59757,-0.96003 -1.59757,-5.3478 0,-2.55972 0.0769,-3.67274 0.11463,-5.52407 0.0219,-1.06635 0.0643,-1.88521 0.0619,-2.07104 -0.008,-0.56987 -0.99339,-0.85708 -1.45189,-0.96322 -0.46066,-0.10705 -0.86099,-0.1485 -1.17359,-0.1307 -0.44242,0.025 -0.75547,0.31522 -0.75547,0.71445 0,0.21404 0.002,0.62109 0.002,0.62109 -0.56985,-0.8955 -1.4864,-1.51877 -2.09622,-1.69938 -1.64249,-0.4878 -3.35643,-0.0556 -4.64918,1.75344 -1.02751,1.43735 -1.64685,3.06531 -1.89065,5.40424 -0.17822,1.70992 -0.12005,3.44392 0.1967,4.91035 -0.38273,1.65472 -1.09327,2.33264 -1.87132,2.33264 -1.12952,0 -1.94839,-1.84365 -1.85331,-5.03215 0.0627,-2.0972 0.48238,-3.56897 0.94109,-5.69818 0.1956,-0.90766 0.0367,-1.38286 -0.3619,-1.83833 -0.36557,-0.41767 -1.14448,-0.63107 -2.26424,-0.3686 -0.79759,0.18713 -1.93796,0.38835 -2.9813,0.54293 0,0 0.0629,-0.25118 0.11464,-0.69403 0.27134,-2.32243 -2.25233,-2.13399 -3.05752,-1.3922 -0.48063,0.44287 -0.80779,0.96519 -0.93196,1.90432 -0.19691,1.49033 1.01859,2.19326 1.01859,2.19326 -0.39881,1.82551 -1.37636,4.21023 -2.38561,5.93436 -0.54055,0.92375 -0.95411,1.60825 -1.48794,2.3359 -0.002,-0.27095 -0.003,-0.54187 -0.004,-0.81155 -0.0122,-3.83794 0.0389,-6.85852 0.0614,-7.94723 0.0219,-1.06635 0.0647,-1.86351 0.0623,-2.04934 -0.006,-0.4168 -0.24944,-0.5742 -0.75568,-0.7735 -0.44764,-0.17626 -0.97692,-0.29826 -1.52593,-0.34082 -0.69295,-0.054 -1.11041,0.31349 -1.09957,0.7481 0.002,0.0821 0.002,0.58592 0.002,0.58592 -0.56988,-0.8955 -1.48642,-1.51875 -2.09623,-1.69938 -1.6425,-0.48759 -3.35643,-0.0554 -4.6492,1.75344 -1.02727,1.43735 -1.70003,3.45434 -1.89065,5.38644 -0.17757,1.80073 -0.14479,3.33103 0.0973,4.62011 -0.26115,1.29084 -1.01207,2.64069 -1.86111,2.64069 -1.08546,0 -1.70307,-0.96005 -1.70307,-5.3478 0,-2.55971 0.0769,-3.67273 0.11462,-5.52386 0.0219,-1.06635 0.0643,-1.88542 0.0619,-2.07104 -0.008,-0.56986 -0.99341,-0.85707 -1.4519,-0.96345 -0.47977,-0.11093 -0.89397,-0.15174 -1.21201,-0.1283 -0.41963,0.0311 -0.71467,0.40705 -0.71467,0.68731 v 0.64584 c -0.56986,-0.8955 -1.4864,-1.51875 -2.09622,-1.69938 -1.6425,-0.48759 -3.34687,-0.0484 -4.64919,1.75344 -0.84926,1.17489 -1.53679,2.47743 -1.89064,5.36082 -0.10231,0.83325 -0.14742,1.61352 -0.14155,2.34285 -0.33867,2.07109 -1.83441,4.45814 -3.05793,4.45814 -0.71597,0 -1.39785,-1.38869 -1.39785,-4.3483 0,-3.94237 0.24401,-9.55544 0.28527,-10.09642 0,0 1.54588,-0.0262 1.84526,-0.0297 0.77109,-0.008 1.46949,0.009 2.49653,-0.0428 0.51516,-0.0262 1.01143,-1.87502 0.47976,-2.10382 -0.24095,-0.10357 -1.94403,-0.19429 -2.61917,-0.20863 -0.5677,-0.013 -2.14811,-0.12982 -2.14811,-0.12982 0,0 0.14176,-3.72571 0.17475,-4.11927 0.0281,-0.32803 -0.3964,-0.49692 -0.63977,-0.59941 -0.59177,-0.25029 -1.12126,-0.37013 -1.74886,-0.49952 -0.86708,-0.17888 -1.26044,-0.004 -1.33728,0.72791 -0.1157,1.11064 -0.17564,4.36372 -0.17564,4.36372 -0.63628,0 -2.80979,-0.12438 -3.44629,-0.12438 -0.59136,0 -1.2296,2.54322 -0.41204,2.57446 0.94064,0.0365 2.5799,0.068 3.66665,0.10073 0,0 -0.0484,5.70556 -0.0484,7.46704 0,0.18739 0.002,0.36787 0.002,0.54298 -0.5981,3.11742 -2.70473,4.80137 -2.70473,4.80137 0.4524,-2.06235 -0.47174,-3.61108 -2.13638,-4.92207 -0.6133,-0.48311 -1.82401,-1.3977 -3.17865,-2.39995 0,0 0.78457,-0.77326 1.48034,-2.32893 0.49301,-1.10195 0.5143,-2.36304 -0.69577,-2.64112 -1.99942,-0.4598 -3.64798,1.00859 -4.13971,2.57621 -0.38098,1.2144 -0.17777,2.11553 0.56858,3.05163 0.0545,0.0684 0.11354,0.13829 0.17454,0.20862 -0.45133,0.86993 -1.07135,2.04114 -1.59649,2.9494 -1.45754,2.5217 -2.55861,4.51633 -3.39073,4.51633 -0.66517,0 -0.65627,-2.02506 -0.65627,-3.92108 0,-1.63453 0.12072,-4.09194 0.2171,-6.63621 0.0319,-0.84144 -0.38881,-1.3208 -1.09413,-1.75496 -0.42854,-0.26378 -1.34315,-0.7824 -1.87284,-0.7824 -0.79285,0 -3.08029,0.10788 -5.24164,6.35987 -0.27238,0.78802 -0.80748,2.22386 -0.80748,2.22386 l 0.046,-7.51825 c 0,-0.17628 -0.0939,-0.3467 -0.30885,-0.46327 -0.3642,-0.19777 -1.33696,-0.60221 -2.20194,-0.60221 -0.41212,0 -0.61778,0.19169 -0.61778,0.57377 l -0.0754,11.76238 c 0,0.89372 0.0233,1.93633 0.11166,2.39233 0.088,0.45659 0.23066,0.828 0.4073,1.049 0.17638,0.22055 0.38042,0.38882 0.71682,0.45826 0.31308,0.0645 2.0275,0.28461 2.11662,-0.37057 0.10677,-0.78517 0.11085,-1.63445 1.01109,-4.80183 1.4015,-4.9312 3.22879,-7.3372 4.08781,-8.19168 0.15019,-0.14934 0.32169,-0.15825 0.31343,0.0862 -0.0367,1.08113 -0.16563,3.78259 -0.25245,6.07768 -0.23269,6.14191 0.88463,7.28032 2.48135,7.28032 1.22157,0 2.94353,-1.21376 4.78944,-4.28622 1.1508,-1.91471 2.26815,-3.79213 3.07095,-5.14526 0.55945,0.5179 1.18727,1.07529 1.81466,1.67075 1.45797,1.38377 1.93666,2.69865 1.61906,3.94605 -0.24292,0.95359 -1.15774,1.93634 -2.78592,0.98114 -0.47456,-0.27867 -0.67711,-0.49397 -1.15427,-0.80814 -0.25638,-0.16877 -0.6478,-0.21922 -0.88247,-0.0424 -0.60959,0.45962 -0.95823,1.04423 -1.1573,1.76802 -0.19364,0.70427 0.51167,1.07656 1.24283,1.40219 0.62956,0.28026 1.98269,0.53424 2.84562,0.56315 3.3623,0.11245 6.05574,-1.62343 7.93073,-6.1011 0.33563,3.86703 1.76408,6.05529 4.24587,6.05529 1.65922,0 3.32277,-2.14468 4.05024,-4.25453 0.20884,0.86005 0.51798,1.60793 0.91721,2.24037 1.91234,3.02993 5.62219,2.37778 7.4857,-0.19511 0.57617,-0.79502 0.66385,-1.0807 0.66385,-1.0807 0.2718,2.42945 2.22822,3.27829 3.34841,3.27829 1.25457,0 2.54994,-0.5931 3.45781,-2.63701 0.10638,0.22182 0.22251,0.43365 0.3493,0.63447 1.91234,3.02992 5.62221,2.37778 7.4857,-0.19512 0.0879,-0.12069 0.16412,-0.23017 0.23078,-0.32843 l 0.0547,1.59577 c 0,0 -1.06309,0.97521 -1.71566,1.57349 -2.87211,2.63504 -5.05602,4.63422 -5.21668,6.96228 -0.20623,2.9685 2.2013,4.07176 4.02268,4.21633 1.93427,0.15351 3.59068,-0.915 4.60883,-2.41036 0.89548,-1.3162 1.48165,-4.14901 1.43866,-6.94688 -0.0171,-1.12038 -0.0454,-2.54495 -0.0675,-4.07196 1.00947,-1.17228 2.1468,-2.65392 3.19405,-4.38825 1.14124,-1.89003 2.36432,-4.4282 2.99063,-6.40351 0,0 1.06267,0.009 2.19672,-0.0651 0.36278,-0.0236 0.46697,0.0503 0.3999,0.3163 -0.081,0.32129 -1.4328,5.53537 -0.19908,9.00881 0.84448,2.3778 2.74815,3.1428 3.8768,3.1428 1.3212,0 2.58511,-0.99775 3.26242,-2.47938 0.0816,0.16519 0.16694,0.32502 0.26008,0.47258 1.91234,3.02993 5.60919,2.37388 7.4857,-0.1951 0.42354,-0.57962 0.66386,-1.0807 0.66386,-1.0807 0.4027,2.51434 2.35803,3.29107 3.478,3.29107 1.16665,0 2.2738,-0.47827 3.17213,-2.60377 0.0376,0.93585 0.0966,1.7011 0.18994,1.94236 0.0569,0.14755 0.38839,0.33277 0.62956,0.42222 1.06722,0.39575 2.15572,0.2086 2.55842,0.1272 0.27895,-0.0564 0.49648,-0.28026 0.52622,-0.85818 0.0781,-1.51745 0.0301,-4.06698 0.49019,-5.96174 0.7722,-3.17993 1.4925,-4.41343 1.83421,-5.0241 0.19124,-0.34214 0.40703,-0.39859 0.41485,-0.0365 0.0162,0.73267 0.0525,2.88427 0.3517,5.77504 0.21967,2.12604 0.51319,3.38268 0.73874,3.7804 0.64367,1.13733 1.43866,1.19118 2.08603,1.19118 0.41181,0 1.27301,-0.11379 1.19594,-0.83756 -0.0376,-0.35278 0.0283,-2.53301 0.78956,-5.66583 0.49713,-2.04584 1.32599,-3.8944 1.62492,-4.57018 0.11028,-0.24923 0.16152,-0.0527 0.15978,-0.0145 -0.0629,1.40892 -0.20428,6.01732 0.36969,8.53773 0.77806,3.41439 3.02885,3.79646 3.81319,3.79646 1.67442,0 3.04383,-1.2737 3.50515,-4.6251 0.11114,-0.80652 -0.0534,-1.42929 -0.54642,-1.42929"
     id="path2" />
  <path
     inkscape:connector-curvature="0"
     style="fill:#262626"
     d="m 40.761931,503.14406 c -16.2103,6.7854 -34.0308,25.955 -39.6591,50.017 -7.1278,30.4875 22.5343,43.3797 24.9672,39.1525 2.8635,-4.967 -5.3151,-6.6467 -6.9986,-22.465 -2.1758,-20.4307 7.3224,-43.2597 19.2762,-53.2764 2.222,-1.861 2.1163,0.7292 2.1163,5.5203 0,8.5676 -0.4734,85.4795 -0.4734,101.5311 0,21.7198 -0.8971,28.5785 -2.5083,35.3558 -1.6325,6.8681 -4.257,11.5088 -2.2683,13.2964 2.2219,1.9996 11.7086,-2.7567 17.2006,-10.4218 6.5857,-9.1931 8.891,-20.2335 9.3049,-32.2232 0.4999,-14.4532 0.4786,-37.3874 0.4999,-50.4689 0.02,-11.9977 0.2021,-47.1296 -0.2103,-68.2496 -0.1011,-5.1803 -14.4679,-10.6152 -21.2479,-7.7745 m 575.627279,101.6534 c -0.5226,11.2916 -3.0221,20.1175 -6.1242,26.3429 -6.0055,12.052 -18.4671,15.7943 -23.7581,-1.5309 -2.8834,-9.444 -3.0181,-25.2164 -0.9451,-38.3952 2.1102,-13.4255 8.0024,-23.5648 17.7592,-22.6504 9.6235,0.9039 14.128,13.3042 13.0682,36.2331 z m -162.23548,70.0559 c -0.1306,18.7617 -3.0834,35.2118 -9.4155,39.9896 -8.9809,6.7747 -21.0519,1.6929 -18.5524,-11.9977 2.2116,-12.1149 12.6709,-24.4873 27.9933,-39.6044 0,0 0.032,3.4474 -0.025,11.6125 z m -2.4528,-70.1652 c -0.5492,10.2844 -3.2154,20.616 -6.1242,26.4536 -6.0042,12.0519 -18.5564,15.8196 -23.7581,-1.5309 -3.5566,-11.8546 -2.7048,-27.1975 -0.9451,-36.8649 2.2835,-12.543 7.8185,-24.1794 17.7592,-24.1794 9.6648,0 14.4306,10.6033 13.0682,36.1224 z m -93.9833,-0.1573 c -0.5892,10.8922 -2.7141,19.9975 -6.1241,26.6109 -6.1695,11.969 -18.3751,15.7649 -23.7581,-1.5309 -3.8806,-12.4716 -2.5595,-29.477 -0.9452,-38.6633 2.3956,-13.632 8.3944,-23.2968 17.7593,-22.381 9.6195,0.9398 14.2959,13.3028 13.0681,35.9651 z m 430.70378,12.7226 c -2.3516,0 -3.4247,2.4239 -4.3125,6.504 -3.0794,14.1866 -6.3161,17.3899 -10.49,17.3899 -4.6631,0 -8.853,-7.0246 -9.9301,-21.0866 -0.8465,-11.0572 -0.7105,-31.4139 0.372,-51.6634 0.2212,-4.1605 -0.9265,-8.277 -12.0857,-12.3309 -4.8018,-1.7437 -11.7818,-4.3112 -15.2571,4.0779 -9.8194,23.7007 -13.6614,42.5171 -14.5652,50.161 -0.047,0.3956 -0.5319,0.4764 -0.6172,-0.4479 -0.5759,-6.1222 -1.8636,-17.2474 -2.0236,-40.6215 -0.031,-4.5605 -0.9971,-8.4424 -6.0308,-11.6205 -3.2661,-2.0622 -13.1842,-5.7095 -16.7555,-1.3704 -3.0941,3.5487 -6.6774,13.0988 -10.4007,24.4193 -3.026,9.2009 -5.1336,15.4251 -5.1336,15.4251 0,0 0.04,-24.8259 0.076,-34.2428 0.016,-3.5526 -2.4209,-4.7364 -3.1554,-4.951 -3.3074,-0.9599 -9.8235,-2.5635 -12.5896,-2.5635 -3.4127,0 -4.2485,1.9076 -4.2485,4.6871 0,0.3639 -0.5386,32.6857 -0.5386,55.2866 0,0.9817 0,2.0528 0.01,3.1906 -1.8876,10.3876 -8.0091,24.4886 -14.6665,24.4886 -6.6654,0 -9.8101,-5.8952 -9.8101,-32.839 0,-15.7183 0.4719,-22.553 0.7039,-33.9214 0.1346,-6.5481 0.3946,-11.5765 0.3799,-12.7176 -0.049,-3.4993 -6.1001,-5.263 -8.9156,-5.9148 -2.8288,-0.6573 -5.287,-0.9119 -7.2066,-0.8026 -2.7168,0.1533 -4.6391,1.9357 -4.6391,4.3872 0,1.3144 0.015,3.8139 0.015,3.8139 -3.4993,-5.4989 -9.1275,-9.3262 -12.8722,-10.4353 -10.086,-2.9954 -20.6107,-0.3413 -28.5491,10.7673 -6.3095,8.8263 -10.11268,18.823 -11.60978,33.1856 -1.0944,10.5001 -0.7372,21.1479 1.2078,30.1528 -2.3502,10.161 -6.7134,14.3239 -11.4911,14.3239 -6.936,0 -11.9644,-11.3212 -11.3805,-30.9007 0.3852,-12.8782 2.9621,-21.9158 5.7789,-34.9906 1.2011,-5.5736 0.2253,-8.4917 -2.2223,-11.2885 -2.2449,-2.5648 -7.0279,-3.8752 -13.904,-2.2635 -4.8977,1.1491 -11.9003,2.3848 -18.3071,3.334 0,0 0.3866,-1.5424 0.7039,-4.2618 1.6663,-14.2613 -13.8307,-13.1042 -18.7751,-8.5491 -2.9514,2.7195 -4.9604,5.9269 -5.7229,11.6938 -1.2091,9.1516 6.2548,13.4681 6.2548,13.4681 -2.4489,11.2098 -8.4517,25.8536 -14.6492,36.4409 -3.3193,5.6724 -5.8588,9.8757 -9.1369,14.3439 -0.012,-1.6638 -0.021,-3.3274 -0.027,-4.9834 -0.075,-23.5675 0.2386,-42.1159 0.3772,-48.8013 0.1347,-6.548 0.3973,-11.4431 0.3826,-12.5842 -0.037,-2.5595 -1.5317,-3.526 -4.6404,-4.7498 -2.7488,-1.0824 -5.9989,-1.8316 -9.3702,-2.0929 -4.2552,-0.3319 -6.8187,1.925 -6.7521,4.5938 0.013,0.5039 0.013,3.598 0.013,3.598 -3.4994,-5.499 -9.1276,-9.3262 -12.8722,-10.4354 -10.0861,-2.9941 -20.6107,-0.3399 -28.5492,10.7673 -6.3081,8.8263 -10.4393,21.2119 -11.6098,33.0763 -1.0904,11.0577 -0.8891,20.4547 0.5973,28.3705 -1.6037,7.9266 -6.2148,16.2156 -11.4285,16.2156 -6.6654,0 -10.458,-5.8953 -10.458,-32.839 0,-15.7183 0.4719,-22.553 0.7039,-33.9202 0.1346,-6.548 0.3946,-11.5777 0.3799,-12.7175 -0.049,-3.4993 -6.1002,-5.263 -8.9156,-5.9162 -2.9461,-0.6812 -5.4896,-0.9318 -7.4426,-0.7879 -2.5768,0.192 -4.3885,2.4996 -4.3885,4.2206 v 3.9659 c -3.4993,-5.499 -9.1275,-9.3262 -12.8722,-10.4354 -10.086,-2.9941 -20.552,-0.2972 -28.5491,10.7673 -5.215,7.2146 -9.4369,15.2131 -11.6098,32.919 -0.6279,5.11671 -0.9052,9.9081 -0.8692,14.3866 -2.0796,12.7179 -11.2645,27.376 -18.7777,27.376 -4.3965,0 -8.5837,-8.5275 -8.5837,-26.7015 0,-24.2087 1.4984,-58.6767 1.7517,-61.9987 0,0 9.4928,-0.1613 11.3312,-0.1827 4.735,-0.052 9.0236,0.06 15.3303,-0.2626 3.1634,-0.1613 6.2108,-11.5138 2.9461,-12.9188 -1.4797,-0.6359 -11.9377,-1.1931 -16.0835,-1.2811 -3.486,-0.079 -13.1908,-0.7972 -13.1908,-0.7972 0,0 0.8705,-22.8783 1.0731,-25.2951 0.172,-2.0143 -2.4342,-3.0514 -3.9286,-3.6807 -3.6339,-1.537 -6.8853,-2.2729 -10.7392,-3.0674 -5.3244,-1.0984 -7.7399,-0.024 -8.2118,4.4698 -0.7105,6.8201 -1.0785,26.7962 -1.0785,26.7962 -3.9072,0 -17.254,-0.7638 -21.1625,-0.7638 -3.6313,0 -7.5506,15.617 -2.5302,15.8089 5.7762,0.224 15.8423,0.4173 22.5156,0.6186 0,0 -0.2972,35.0359 -0.2972,45.8525 0,1.1508 0.01,2.259 0.012,3.3343 -3.6727,19.143 -16.6088,29.4836 -16.6088,29.4836 2.7781,-12.6642 -2.8968,-22.1744 -13.1188,-30.2248 -3.766,-2.9666 -11.2006,-8.5828 -19.519,-14.7372 0,0 4.8178,-4.7484 9.0903,-14.3012 3.0274,-6.7667 3.1581,-14.5106 -4.2725,-16.2182 -12.2777,-2.8235 -22.401,6.1934 -25.4205,15.8196 -2.3395,7.4572 -1.0917,12.9908 3.4914,18.739 0.3346,0.42 0.6972,0.8492 1.0718,1.2811 -2.7715,5.3419 -6.5788,12.5339 -9.8035,18.1112 -8.9503,15.485 -15.7116,27.7333 -20.8213,27.7333 -4.0846,0 -4.0299,-12.4352 -4.0299,-24.078 0,-10.0371 0.7412,-25.1272 1.3331,-40.7508 0.1959,-5.167 -2.3876,-8.1105 -6.7187,-10.7766 -2.6315,-1.6197 -8.2478,-4.8044 -11.5005,-4.8044 -4.8686,0 -18.915,0.6625 -32.1871,39.0538 -1.6726,4.8389 -4.9585,13.656 -4.9585,13.656 l 0.2828,-46.1671 c 0,-1.0824 -0.5765,-2.1289 -1.896499,-2.8448 -2.2365,-1.2144 -8.2099,-3.6979 -13.5214,-3.6979 -2.5307,0 -3.7936,1.1771 -3.7936,3.5233 l -0.4633,72.2288 c 0,5.488 0.1431,11.8903 0.6857,14.6905 0.5406,2.8037 1.4164,5.0845 2.5011,6.4415 1.0831,1.3544 2.336,2.3876 4.4017,2.814 1.9226,0.3958 12.450299,1.7477 12.997499,-2.2755 0.6556,-4.8215 0.6807,-10.0366 6.2088,-29.4864 8.6061,-30.2808 19.8269,-45.0553 25.1018,-50.3023 0.9223,-0.9171 1.9754,-0.9718 1.9247,0.5292 -0.2252,6.6388 -1.0171,23.2276 -1.5502,37.3209 -1.4289,37.7154 5.4322,44.706 15.2371,44.706 7.5012,0 18.0752,-7.4533 29.4103,-26.3202 7.0667,-11.7576 13.928,-23.2862 18.8577,-31.5953 3.4354,3.1802 7.2906,6.603 11.1432,10.2595 8.9529,8.4973 11.8924,16.5715 9.9421,24.2313 -1.4917,5.8557 -7.1093,11.8904 -17.1074,6.0249 -2.9141,-1.7112 -4.1579,-3.0333 -7.088,-4.9625 -1.5743,-1.0364 -3.9779,-1.3462 -5.4189,-0.2605 -3.7433,2.8224 -5.8842,6.4123 -7.1066,10.8568 -1.1891,4.3247 3.142,6.6108 7.6318,8.6104 3.8659,1.721 12.175,3.2805 17.474,3.4581 20.6467,0.6905 37.1862,-9.9689 48.6999,-37.4648 2.061,23.7461 10.8326,37.1835 26.0724,37.1835 10.1887,0 20.404,-13.1698 24.8712,-26.1256 1.2824,5.2812 3.1807,9.8737 5.6322,13.7573 11.7431,18.6058 34.524,14.6012 45.9672,-1.1981 3.538,-4.8819 4.0765,-6.6362 4.0765,-6.6362 1.669,14.9184 13.6827,20.1308 20.5614,20.1308 7.7039,0 15.6583,-3.642 21.2332,-16.1929 0.6533,1.3621 1.3664,2.6629 2.145,3.896 11.743,18.6058 34.524,14.6012 45.9671,-1.1981 0.5399,-0.7411 1.0078,-1.4134 1.4171,-2.0168 l 0.3359,9.7991 c 0,0 -6.5281,5.9885 -10.5353,9.6622 -17.6366,16.1809 -31.0473,28.4572 -32.0338,42.7531 -1.2664,18.2285 13.5174,25.0032 24.7019,25.891 11.8777,0.9426 22.0491,-5.6187 28.3012,-14.8012 5.4989,-8.0823 9.0983,-25.4777 8.8343,-42.6584 -0.1053,-6.8799 -0.2786,-15.6277 -0.4146,-25.0045 6.1988,-7.1986 13.1828,-16.2969 19.6136,-26.9468 7.008,-11.6061 14.5185,-27.1921 18.3644,-39.3218 0,0 6.5255,0.056 13.4894,-0.3999 2.2276,-0.1453 2.8675,0.3092 2.4556,1.9423 -0.4973,1.9729 -8.7983,33.9908 -1.2225,55.32 5.1857,14.6012 16.8755,19.2989 23.8061,19.2989 8.1131,0 15.8743,-6.1269 20.03348,-15.225 0.5012,1.0143 1.0251,1.9958 1.597,2.9019 11.7431,18.6058 34.4441,14.5772 45.9672,-1.1981 2.6008,-3.5592 4.0765,-6.6362 4.0765,-6.6362 2.4729,15.4397 14.4799,20.2094 21.3572,20.2094 7.164,0 13.9627,-2.9369 19.479,-15.9889 0.2306,5.7468 0.5932,10.4459 1.1664,11.9274 0.3493,0.906 2.3849,2.0434 3.8659,2.5927 6.5534,2.4302 13.2375,1.281 15.7103,0.7811 1.713,-0.3467 3.0488,-1.721 3.2314,-5.2698 0.4799,-9.3181 0.1853,-24.9739 3.0101,-36.609 4.7418,-19.5269 9.1649,-27.1014 11.2632,-30.8513 1.1744,-2.101 2.4995,-2.4476 2.5475,-0.224 0.099,4.4991 0.3226,17.7113 2.1596,35.4625 1.349,13.0554 3.1514,20.772 4.5364,23.2142 3.9526,6.984 8.8343,7.3147 12.8096,7.3147 2.5288,0 7.8171,-0.6988 7.3439,-5.1432 -0.2306,-2.1663 0.1733,-15.5544 4.8484,-34.792 3.0527,-12.5628 8.1424,-23.9141 9.9781,-28.0639 0.6772,-1.5304 0.9918,-0.324 0.9811,-0.089 -0.3866,8.6517 -1.2544,36.9503 2.2702,52.4273 4.7778,20.9666 18.5991,23.3128 23.4155,23.3128 10.282,0 18.6911,-7.8214 21.5239,-28.4012 0.6825,-4.9526 -0.328,-8.7768 -3.3554,-8.7768"
     id="path2-2" />
  <text
     xml:space="preserve"
     style="font-style:normal;font-weight:normal;font-size:42.66666794px;line-height:1.25;font-family:sans-serif;letter-spacing:0px;word-spacing:0px;fill:#000000;fill-opacity:1;stroke:none"
     x="98.084099"
     y="208.13277"
     id="text29"><tspan
       sodipodi:role="line"
       id="tspan27"
       x="98.084099"
       y="208.13277">LOGODOWNLOAD.ORG</tspan></text>
</svg>
